<?xml version="1.0" encoding="UTF-8"?>
<svg id="Capa_2" data-name="Capa 2" xmlns="http://www.w3.org/2000/svg" xmlns:xlink="http://www.w3.org/1999/xlink" viewBox="0 0 236.66 203.42">
  <defs>
    <style>
      .cls-1 {
        fill: url(#Degradado_sin_nombre_25);
        stroke: #000;
        stroke-miterlimit: 10;
      }
    </style>
    <linearGradient id="Degradado_sin_nombre_25" data-name="Degradado sin nombre 25" x1="118.33" y1=".5" x2="118.33" y2="202.92" gradientUnits="userSpaceOnUse">
      <stop offset="0" stop-color="#ea9e23"/>
      <stop offset=".11" stop-color="#edae3e"/>
      <stop offset=".25" stop-color="#f0c05b"/>
      <stop offset=".4" stop-color="#f3cf72"/>
      <stop offset=".56" stop-color="#f5d983"/>
      <stop offset=".74" stop-color="#f6df8c"/>
      <stop offset=".98" stop-color="#f7e190"/>
    </linearGradient>
  </defs>
  <g id="Capa_1-2" data-name="Capa 1">
    <path class="cls-1" d="M123.73,155.41c2.98-3.52,14.14-16.01,16.79-19.76,2.79-3.95,4.44-8.57,4.74-13.32,.41-6.42,.06-12.89,.03-19.34,0-16.91,0-33.82,0-50.74,.03-10.29,.1-20.58,.04-30.87-.01-1.96,.5-2.6,2.52-2.58,9.83,.09,19.66,.04,29.5,.04,6.55,0,13.09,0,19.64,.04,.91,0,2.52-.28,2.52,.86,0,.72-.63,1.37-1.12,1.95-5.05,6.05-10.13,12.07-15.19,18.1l-3.59,4.09s-4.24,3.66-7.48,3.46c-3.97-.23-7.97-.01-11.96-.12-1.06-.03-1.9,.79-1.88,1.85,.09,4.95,.08,9.9,.01,14.85-.02,1.35,.39,1.78,1.75,1.76,5.19-.07,10.39,.19,15.56-.09,5.53-.3,10.65-2.27,14.55-6.24,5.91-6.01,11.17-12.62,16.6-19.07,9.18-10.68,18.36-21.36,27.56-32.03,1.45-1.68,2.43-3.61,1.46-5.66-.91-1.92-2.97-2.06-4.99-2.06-31.25,.03-62.51,.02-93.76,.02-5.31,0-8.94,5.78-9.93,8.97-.21,.67-.35,2.78-.35,2.78V87.19s.05,3.82,.05,3.82l-.04,2.96s-.1,17.83,.07,26.74c.05,2.48-.86,4.2-2.42,5.9-5.52,5.99-10.75,12.24-15.94,18.52-4.04,3.92-7.22,8.66-11.55,12.6-.71-6.01-.14-11.71-.46-17.39,.03-5.32,.08-10.64,.07-15.96,0-11.91-.05-23.82-.07-35.73,.03-10.26,.09-20.53,.09-30.79,0-6.87-4.29-10.66-11.18-10.61-15.69,.11-31.39-.02-47.08-.03-.73,0-1.43,.1-1.83-.68,2.58-3.21,5.58-6.04,8.09-9.37,4.6-6.07,9.85-11.65,14.82-17.45,.43-.5,1.57-.85,1.57-.85l6.43-.08s28.93,.01,43.39,.12c2.04,.01,2.39-.81,2.3-2.75-.19-4.17-.24-8.34,.05-12.51,.17-2.45-.33-3.15-2.63-3.13-16.46,.09-32.93-.1-49.39,.13-6.64,.09-12.2,3.24-16.63,8.17-1.96,2.18-3.71,4.56-5.62,6.79-8.78,10.29-17.57,20.55-26.36,30.83h0c-3.49,4.02-7.02,8.01-10.45,12.09-1.19,1.41-2.08,3.07-1.1,5.01,.76,1.5,2.12,1.8,3.52,1.99,.59,.08,1.56,.14,2.16,.14,22.92,0,45.85,.04,68.77-.05,2.36,0,2.91,.69,2.87,2.94-.12,6.69,0,13.39,.03,20.08h0s0,0,0,0c0,16.75,0,33.51-.01,50.26h0c-.02,19.78-.03,39.55-.07,59.33,0,1.87,.27,3.7,2.07,4.48,1.91,.83,3.19-.93,4.2-2.05,6.16-6.87,12.16-13.88,18.21-20.85,7.03-8.11,14.12-16.19,21.05-24.39Z"/>
  </g>
</svg>